<?xml version="1.0" standalone="no"?><!DOCTYPE svg PUBLIC "-//W3C//DTD SVG 1.1//EN" "http://www.w3.org/Graphics/SVG/1.1/DTD/svg11.dtd"><svg t="1592630348543" class="icon" viewBox="0 0 1024 1024" version="1.1" xmlns="http://www.w3.org/2000/svg" p-id="1195" xmlns:xlink="http://www.w3.org/1999/xlink" width="200" height="200"><defs><style type="text/css"></style></defs><path d="M513.5 1021.3c-68.7 0-135.3-13.5-198-40-60.6-25.6-115-62.3-161.7-109s-83.4-101.1-109-161.7c-26.5-62.7-40-129.3-40-198s13.5-135.3 40-198c25.6-60.6 62.3-115 109-161.7S255 69.7 315.5 44.1c62.7-26.5 129.3-40 198-40s135.3 13.5 198 40c60.6 25.6 115 62.3 161.7 109 46.7 46.7 83.4 101.1 109 161.7 26.5 62.7 40 129.3 40 198s-13.5 135.3-40 198c-25.6 60.6-62.3 115-109 161.7-46.7 46.7-101.1 83.4-161.7 109-62.7 26.4-129.4 39.8-198 39.8z m0-969.2c-254 0-460.6 206.6-460.6 460.6s206.6 460.6 460.6 460.6 460.6-206.6 460.6-460.6S767.5 52.1 513.5 52.1z" p-id="1196"></path><path d="M514 912.2l-0.1-48c14.7 0 29.6-1 44.1-2.8l6 47.6c-16.5 2.2-33.3 3.2-50 3.2z m-50.1-3c-16.6-2.1-33.2-5.2-49.3-9.3l11.8-46.5c14.2 3.6 28.8 6.4 43.4 8.2l-5.9 47.6z m149.4-9.5l-12-46.5c14.2-3.7 28.3-8.2 41.9-13.7l17.7 44.6c-15.4 6.2-31.5 11.4-47.6 15.6z m-246.5-15.2c-15.5-6.1-30.8-13.3-45.4-21.3l23.1-42.1c12.9 7.1 26.3 13.4 39.9 18.8l-17.6 44.6z m339.5-21.8l-23.2-42c12.8-7.1 25.3-15.1 37.2-23.7l28.3 38.8c-13.5 9.8-27.7 18.9-42.3 26.9zM279 836.2c-13.5-9.8-26.5-20.5-38.7-31.9l32.8-35c10.7 10 22.2 19.5 34 28.1L279 836.2z m508.2-32.4l-32.9-35c10.7-10.1 20.9-20.9 30.2-32.2l37 30.6c-10.6 12.8-22.2 25.2-34.3 36.6z m-581.2-36c-10.7-12.8-20.6-26.5-29.6-40.5l40.5-25.8c7.9 12.4 16.6 24.3 26 35.6L206 767.8z m645-41.2l-40.5-25.7c7.9-12.4 15-25.4 21.3-38.7l43.4 20.4c-7.1 15.1-15.3 29.9-24.2 44z m-698.8-43.2c-7.1-15.1-13.4-30.8-18.6-46.6l45.6-14.9c4.5 13.9 10 27.7 16.3 41l-43.3 20.5zM893.6 636L848 621.2c4.5-13.9 8.2-28.3 10.9-42.7l47.2 8.9c-3.2 16.4-7.3 32.7-12.5 48.6z m-772.5-47.8c-3.1-16.3-5.2-33.1-6.3-49.8l47.9-3c0.9 14.7 2.8 29.4 5.5 43.8l-47.1 9z m791.1-50.6l-47.9-2.9c0.4-7.2 0.7-14.6 0.7-21.9 0-7.4-0.2-14.9-0.7-22.3l47.9-3c0.5 8.4 0.8 16.9 0.8 25.3 0 8.2-0.3 16.6-0.8 24.8z m-749.6-46.4l-47.9-2.9c1-16.7 3.1-33.4 6.1-49.8l47.2 8.9c-2.7 14.4-4.5 29.2-5.4 43.8z m696.2-44.5c-2.7-14.4-6.4-28.8-11-42.7l45.6-14.8c5.2 15.9 9.3 32.2 12.5 48.6l-47.1 8.9z m-679.9-42L133.2 390c5.1-15.9 11.3-31.6 18.4-46.7l43.5 20.4c-6.2 13.2-11.7 27-16.2 41zM831.6 363c-6.2-13.2-13.4-26.2-21.3-38.6l40.5-25.8c9 14.1 17.1 28.8 24.2 43.9L831.6 363z m-615.3-38.1l-40.6-25.7c8.9-14.1 18.8-27.7 29.4-40.6l37 30.5c-9.2 11.4-17.9 23.4-25.8 35.8z m568-36.2c-9.4-11.3-19.5-22.1-30.2-32.2l32.9-35c12.1 11.4 23.7 23.7 34.3 36.5l-37 30.7z m-511.9-31.8L239.5 222c12.1-11.4 25.1-22.2 38.6-32l28.3 38.8c-11.9 8.6-23.3 18.1-34 28.1z m447.7-28.6c-11.9-8.6-24.4-16.6-37.3-23.7l23.2-42c14.6 8 28.8 17.1 42.3 26.9l-28.2 38.8zM343.5 205l-23.2-42c14.6-8.1 29.8-15.3 45.3-21.5l17.8 44.6c-13.6 5.4-27 11.8-39.9 18.9z m299.4-19.2c-13.6-5.4-27.8-10-42-13.6l11.9-46.5c16.2 4.1 32.2 9.4 47.8 15.5l-17.7 44.6z m-217.6-13.4l-12-46.5c16.1-4.2 32.7-7.3 49.3-9.5l6.1 47.6c-14.6 1.9-29.2 4.7-43.4 8.4z m132.3-8.4c-14.5-1.8-29.3-2.7-44.1-2.7h-0.8l-0.1-48h0.9c16.7 0 33.5 1 50 3.1l-5.9 47.6z" p-id="1197"></path><path d="M621.9 334.3c-10 0-20 0.4-30 1.2-9.7-43.8-90.5-67.3-166.7-67.3-81.3 0-167.7 26.8-167.7 76.3v270.3c0 49.6 86.4 76.3 167.7 76.3 10 0 20-0.6 30-1.4 9.6 43.9 90.4 67.5 166.8 67.5 81.3 0 167.7-26.8 167.7-76.3V410.6c-0.1-49.5-86.5-76.3-167.8-76.3z m-167.8 326c-9.3 0.7-18.8 1.3-29 1.3-84.3 0-138.1-27.7-138.1-46.7v-44.3c32.3 20.8 86.2 31.8 138.1 31.8 9.7 0 19.3-0.6 29-1.3v59.2z m0-88.8c-9.3 0.7-18.8 1.3-29 1.3-84.3 0-138.1-27.7-138.1-46.7v-44.3c32.3 20.8 86.2 31.8 138.1 31.8 9.7 0 19.3-0.6 29-1.3v59.2z m0-88.8c-9.3 0.7-18.8 1.3-29 1.3-84.3 0-138.1-27.7-138.1-46.7V389c32.3 20.8 86.2 31.8 138.1 31.8 9.7 0 19.3-0.6 29-1.3v63.2zM760 681c0 19.1-53.8 46.7-138.1 46.7S483.8 700 483.8 681v-44.3c32.2 20.8 86.2 31.8 138.1 31.8 52 0 105.9-11 138.1-31.8V681z m0-88.8c0 19.1-53.8 46.7-138.1 46.7s-138.1-27.7-138.1-46.7v-44.3c32.2 20.8 86.2 31.8 138.1 31.8 52 0 105.9-11 138.1-31.8v44.3z m0-88.8c0 19.1-53.8 46.7-138.1 46.7s-138.1-27.7-138.1-46.7v-48.2C516 476 569.9 487 621.9 487s105.9-11 138.1-31.8v48.2z" p-id="1198"></path></svg>